<?xml version="1.0" encoding="utf-8"?>
<!-- Generator: Adobe Illustrator 26.0.1, SVG Export Plug-In . SVG Version: 6.00 Build 0)  -->
<svg version="1.1"
	 id="svg61" xmlns:inkscape="http://www.inkscape.org/namespaces/inkscape" xmlns:sodipodi="http://sodipodi.sourceforge.net/DTD/sodipodi-0.dtd" xmlns:svg="http://www.w3.org/2000/svg"
	 xmlns="http://www.w3.org/2000/svg" xmlns:xlink="http://www.w3.org/1999/xlink" x="0px" y="0px" viewBox="0 0 230 50"
	 style="enable-background:new 0 0 230 50;" xml:space="preserve">
<style type="text/css">
	.st0{fill:#1C1A1A;}
	.st1{fill:#EE1A23;}
	.st2{fill:#FFFFFF;}
</style>
<sodipodi:namedview  bordercolor="#666666" borderopacity="1.0" height="50px" id="namedview63" inkscape:current-layer="svg61" inkscape:cx="214.49529" inkscape:cy="39.523125" inkscape:document-units="pt" inkscape:pagecheckerboard="0" inkscape:pageopacity="0.0" inkscape:pageshadow="2" inkscape:window-height="1017" inkscape:window-maximized="1" inkscape:window-width="1920" inkscape:window-x="-8" inkscape:window-y="-8" inkscape:zoom="1.2144789" pagecolor="#ffffff" showgrid="false" units="px">
	</sodipodi:namedview>
<g id="g449" transform="matrix(0.42587289,0,0,0.42925824,-11.754092,-20.303915)">
	<path id="path26" class="st0" d="M27.7,49.8c27.7-0.1,55.4,0,83.1,0c0,27.5,0,55,0,82.5c-27.7-0.2-55.4-0.1-83.2-0.1
		C27.7,104.8,27.6,77.3,27.7,49.8 M33,55.1c0,23.9,0,47.8,0,71.8c5.2-0.1,10.4,0,15.6-0.2c-3.8-1.6-7.9-3.7-9.5-7.8
		c-1.9-7.6,4.3-14,9.2-19.1c-7.6-6-11.6-16.4-8.6-25.8C41.8,64.6,50,57.8,59.1,55C50.4,55.1,41.7,55.3,33,55.1 M77.3,54.9
		c3.5,1.6,6.9,3.4,10.1,5.4c2-1.8,4-3.6,6.1-5.3C88.2,55.1,82.7,55,77.3,54.9 M98.6,66.7c-1.1,0.4-4.5,0.2-3.5,2.2
		c3.8,7.2,5,16,1.4,23.5c-5.1,11-18.4,15.5-29.8,14.4c-4.5-0.7-9.3,1-11.9,4.9c3.1,3.5,7.6,5,12.1,4.8c9.8-0.1,20-0.3,29.2,3.7
		c3.7,1.6,6.3,4.7,9.2,7.3c-0.1-20.5,0-40.9,0-61.4C103,66.3,100.8,66.3,98.6,66.7 M63.3,68.8c-9.7,3.7-9.7,19-0.1,22.8
		c8.8,4.7,20.1-4.2,18-13.8C79.6,70.1,70.5,65.1,63.3,68.8z"/>
	<g id="g412">
		<g id="_x23_ee1a23ff">
			<path id="path7" class="st1" d="M147.8,60c5.1-4.1,9.5-9.1,15-12.7c2.6,1.7,4.5,4.9,7.9,4.8c3.4,0,6.6-1.6,9.8-2.5
				c-2.7,5.4-5.6,11.4-11.4,14c-4.7,1.6-9.1-1.1-13.5-2.5c-0.1,12.6-0.1,25.2-0.2,37.7c0,3.9,0,8.2,2.8,11.3
				c1.9,1.7,4.2,2.9,6.4,4.3c0-7.3,0.1-14.5,0.2-21.8c-2.4,0-4.8,0.1-7.2,0.1c0.5-3.2,2.1-6,3.9-8.6c7.2,0,14.3,0,21.5,0.1
				c-0.1,9.4,0.1,18.8-0.1,28.1c0.2,1.8-0.7,3.3-2.1,4.2c-6.7,5.5-13.4,11.1-20.1,16.8c-5.9-4-11.4-8.5-17.2-12.6
				c-3.3-2.4-7.3-5.3-7.1-9.9c0.1-13.5-0.4-27,0.4-40.4C140.1,66.6,143.8,63.2,147.8,60z"/>
			<path id="path9" class="st1" d="M548.1,54.7c3-2.5,5.8-5.3,9.3-7c3.5,2.4,6.9,5.1,9.4,8.6c1,23.5-0.7,47.1,0.6,70.5
				c-2.9,2-5.5,4.3-8.5,6.1c-3.8-0.9-7.1-4.2-9.1-7.4c-1.2-6.1-0.2-12.4-0.1-18.6c0.2-16.6-0.1-33.2,0.3-49.8
				C549.5,56.5,548.5,55.3,548.1,54.7L548.1,54.7z"/>
			<path id="path11" class="st1" d="M242.7,55.2c3.3-2.4,6.2-5.2,9.6-7.4c5.2,2.4,11.4,7,10.7,13.6c-0.4,21.8-0.6,43.7-0.3,65.6
				c-3.1,1.8-5.6,5-9.1,5.9c-3.1-1.9-6.1-4.3-8.4-7.2c-0.5-23.3,0.1-46.6,0-69.9C244.6,55.7,243.3,55.4,242.7,55.2z"/>
			<path id="path13" class="st1" d="M304.5,47.7c3.7,3.7,10.6,6.3,9.8,12.5c-0.2,21.5-0.1,43.1-0.3,64.6c0.5,0.4,1.5,1.2,2,1.7
				c-2.9,2-5.7,4.3-8.7,6.1c-1.3,1.1-2.7-0.3-3.7-1.1c-2.4-2-4.8-4-7.3-5.9c-2.5,2.6-5.1,5.2-7.8,7.7c-4.9-2.6-9.3-6.1-13.4-9.7
				c-3.1-2.4-3.2-6.6-3.1-10.1c0.6-7.6,0-15.2,0.3-22.8c-0.2-2.4,2.1-3.7,3.7-5.1c5.7-4,11.5-7.9,17.4-11.6c1.1,1.1,2.2,2.1,3.3,3.2
				c0.1-5.7,0.2-11.4,0.1-17.1c0.2-1.9-0.5-3.6-1.4-5.2C298.6,52.7,301.6,50.3,304.5,47.7 M289.7,86.8c0.1,8.9-0.1,17.8-0.2,26.7
				c-0.1,4.2,3.2,7.6,7.2,8.3c0.3-7.6,0.1-15.3,0.2-22.9C297.4,93.7,292.9,90.2,289.7,86.8z"/>
			<path id="path15" class="st1" d="M468.2,55.1c3.2-2.4,6.3-5,9.4-7.5c3.8,3.6,10.7,6.3,9.8,12.6c-0.2,21.5-0.2,43-0.3,64.5
				c0.5,0.4,1.6,1.3,2.1,1.7c-3.5,2-6.3,5.5-10.1,6.5c-3.5-1.8-6-5.1-9.5-7.1c-2.9,2.3-5.4,5.1-8.2,7.5c-5-3.2-10-6.7-14.3-10.8
				c-3.1-5.6-1.4-12.3-1.8-18.4c0.4-5.1-1-10.7,0.7-15.5c5.6-5.9,13.2-9.4,19.6-14.4c1.1,0.5,3.4,1.5,4.5,2
				c-0.1-6.5-0.2-12.9,0-19.4C469.6,56.5,468.7,55.6,468.2,55.1 M462.7,87.4c0,9.2-0.4,18.4,0.1,27.5c0.1,3.9,3.6,6.2,7,7.1
				c0.2-8.1,0.3-16.3,0.2-24.5C469.9,93,465.9,90,462.7,87.4L462.7,87.4z"/>
			<path id="path17" class="st1" d="M212.9,74.5c3.3-2.2,6.1,1.9,8.6,3.4c4.5,4.3,11.2,7,13.7,13c0.1,8.8,0.8,17.9-0.5,26.5
				c-5.5,6.5-13.2,10.7-19.9,15.9c-5.6-4.1-10.8-8.5-16.3-12.7c-2.3-1.9-5.2-4-5.4-7.3c-0.4-6.5,0-13,0-19.5c-0.9,0-2.6,0-3.4,0.1
				C197.5,87.5,205.1,81,212.9,74.5 M210.1,88.7c0.1,5.6-0.3,11.2,0.1,16.9c0.4,4.9,4.1,8.4,7.8,11.1c0.1-6.8,0.5-13.7,0-20.5
				C216.5,92.7,213.2,90.5,210.1,88.7z"/>
			<path id="path19" class="st1" d="M344.1,82.8c3.7-2.7,7.3-5.7,10.7-8.8c3.2,2.8,6.2,5.7,9.8,8c1.7,1.6,3.9-0.5,5.4-1.4
				c2.8-2,5.5-4.3,8.2-6.5c3.9,2.6,7.5,5.5,10.9,8.6c0,13.6-0.1,27.3-0.1,40.9c0.5,0.4,1.3,1.3,1.8,1.7c-4.1,2.3-7.3,6.4-11.8,7.7
				c-3-2.5-6.1-5.2-7.8-8.8c-1-12.4,0.2-24.9-0.6-37.3c-1.2-0.7-2.4-1.4-3.7-2c-3.4,2.8-2.5,7.3-2.5,11.2
				c0.3,10.1-1.2,20.3,0.5,30.4c-2.7,2.3-5.4,4.8-8.6,6.5c-3.4-1.5-6.3-4-8.6-6.8c-1.6-13.5,1.1-27.2-1.2-40.6
				c-1.9,0.4-3.7,0.9-5.6,1.4c0.1,13.1-0.6,26.3,0.2,39.4c-2.7,2.4-5.3,5.4-8.9,6.5c-3.2-2.1-7-4.7-8.2-8.4
				c-0.3-13.6,0.1-27.2,0-40.8c-0.5-0.2-1.6-0.5-2.2-0.7c3.9-2.7,7.7-5.5,11.4-8.5C336.4,77.6,340,80.5,344.1,82.8L344.1,82.8z"/>
			<path id="path21" class="st1" d="M398.1,92.3c8.1-6,14.9-13.7,23.7-18.9c4.6,5.7,13.6,9.3,13.9,17.4
				c-3.2,9.9-14.8,13.6-19.5,22.5c1.4,3.7,5.1,7,9.3,6.6c3.6-0.9,6.7-3.1,10.1-4.4c-5.5,6.8-12.8,12.1-19.6,17.5
				c-4-0.6-6.7-4.4-9.9-6.7c-2.6-2.7-7.4-4.4-7.4-8.7C398.3,109.2,399.4,100.7,398.1,92.3 M416.4,88.6c-0.1,6-0.2,12.1,0.3,18.1
				c3.3-2.5,6.7-5.9,6.1-10.5C422.8,92.4,418.9,90.7,416.4,88.6L416.4,88.6z"/>
			<path id="path23" class="st1" d="M500.8,82.4c5.8-4.9,12.9-8.8,20.7-9.2c5.4-0.3,11.4,1.3,14.8,5.8c3.1,3.7,3.4,8.8,3.4,13.4
				c-0.1,10.4-0.1,20.8-0.3,31.2c0.5,0.5,1.5,1.6,2,2.1c-2.7,2.4-5.5,4.7-8.1,7.3c-5,0.3-7.4-5.1-11.6-6.9c-3.2,2.3-6,5.1-9.4,7.2
				c-4.2-3.4-8.8-6.3-12.7-9.9c-3.1-3.3-2.4-8.3-2.5-12.4c0.1-4.5-0.8-10,2.9-13.4c5.8-5.4,14.6-4.9,21.9-3.3c0-3.1,0-6.2,0.1-9.3
				c-5.6-7.1-14.7-2.5-21.1,0.6C500.9,84.6,500.8,83.1,500.8,82.4 M516,101.3c-3.2,2.7-2.1,7.3-2.2,11c-0.1,4.6,3.3,8.9,8,9.4
				c0.1-7.5,0.1-14.9,0.1-22.4C519.9,99.8,517.5,99.5,516,101.3z"/>
		</g>
		<g id="g377">
			<g id="g353">
				<path id="path30" class="st0" d="M137.5,147c0.9-4.3,5.6-4.8,9.2-4.4c0.2,1.1,0.5,3.2,0.6,4.3c-1.9-0.5-3.7-0.4-5.4,0.3
					c0.1,4.4,6.8,5.7,6.3,10.4c0.1,5.3-6.1,6.8-10.3,5.5c-0.1-1.1-0.4-3.4-0.6-4.6c2-0.1,6.2,2.6,6.1-1.2
					C141.3,154,136.2,151.8,137.5,147z"/>
				<path id="path32" class="st0" d="M160.9,142.6c1.2,0,3.5,0.1,4.6,0.1c1,4.7,1.5,9.4,2,14.2c1.6-4.6,2.2-9.5,3.1-14.2
					c1,0,2.9,0.1,3.9,0.1c0.6,4.6,1.5,9.2,2.5,13.7c0.9-4.6,1.8-9.1,2.2-13.8c1.5,0,3.1,0.1,4.6,0.1c-1.5,6.9-2.9,13.7-4.5,20.6
					c-1,0-3.1-0.1-4.1-0.1c-0.7-4.6-1.7-9.2-2.6-13.8c-1.3,4.5-2,9.2-3.1,13.8c-1,0-3,0-4,0C163.7,156.5,162.4,149.6,160.9,142.6z"
					/>
				<path id="path34" class="st0" d="M197.7,142.7c1.6,0,3.2,0,4.8,0.1c0.1,6.9,0.1,13.7-0.1,20.6c-1.6,0-3.2,0-4.8,0.1
					C197.6,156.5,197.5,149.6,197.7,142.7z"/>
				<path id="path36" class="st0" d="M220.1,147.2c-3.1,0.3-3.5-2-3.4-4.5c3.9,0.1,7.8,0.1,11.7,0c0,0.9,0,2.7,0,3.6
					c-0.8,0.3-2.4,0.8-3.3,1.1c-0.4,5.2-0.1,10.5,0,15.8c-1.6,0.1-3.3,0.1-4.9,0.2C220.1,158,220.2,152.6,220.1,147.2z"/>
				<path id="path38" class="st0" d="M247.2,142.8c2.1-0.1,4.3-0.2,6.4-0.3c0,1,0.1,3,0.1,4c-2.3,0.3-4.7,0.7-6.9,1.7
					c-0.7,3.2-0.7,6.4,0,9.5c2.2,0.9,4.5,1.4,6.8,1.8c0,1-0.1,3-0.2,4.1c-3.1,0.1-6.6,0.1-8.9-2.2
					C239,156.3,240.7,146.2,247.2,142.8z"/>
				<path id="path40" class="st0" d="M268.2,142.8c1.6,0,3.2,0,4.8,0c0,2.5-0.1,5.1-0.1,7.6c1.2,0,3.6,0,4.7,0
					c0-2.6-0.1-5.1-0.1-7.7c1.6,0.1,3.2,0.2,4.8,0.3c-0.1,6.8,0.3,13.6-0.2,20.3c-1.1,0.1-3.4,0.2-4.5,0.3c-0.1-3.1-0.1-6.1,0-9.2
					c-1.5,0.1-3.1,0.1-4.6,0.3c-0.3,2.9-0.1,5.8-0.1,8.7c-1.2,0-3.6-0.1-4.9-0.1C268.4,156.4,268.3,149.6,268.2,142.8z"/>
				<path id="path42" class="st0" d="M297.8,142.9c3.1-0.1,6.3-0.2,9.5-0.3c0,1.4,0,2.8,0,4.2c-1.2,0-3.7,0-5,0c0,1,0,3.1,0,4.1
					c1.1,0,3.4-0.1,4.6-0.1c0,1-0.1,2.9-0.1,3.9c-1.6,0.1-3.1,0.2-4.7,0.3c0.1,1.3,0.2,2.6,0.4,4c1.7,0.1,3.4,0.1,5.1,0.2
					c-0.1,1.4-0.2,2.8-0.2,4.1c-3.1,0-6.3,0-9.4,0.1C297.6,156.6,297.7,149.8,297.8,142.9z"/>
				<path id="path44" class="st0" d="M323,144.3c1.9-2.5,5.2-1.5,7.8-1.6c0.1,1,0.3,3,0.5,4c-1.9-0.5-3.8-0.3-5.5,0.5
					c0.5,4.3,6.7,5.7,6.4,10.3c0.2,1.9-1.3,3.3-2,4.9c-2.7,0.9-5.6,1.2-8.4,0.5c-0.1-1.1-0.4-3.3-0.5-4.5c2,0,4.8,1.8,6.2-0.4
					c-0.5-3.3-4.4-4.9-6.2-7.5C321.5,148.5,321.1,145.9,323,144.3z"/>
			</g>
			<g id="g343">
				<g id="_x23_ffffffff">
					<path id="path2" class="st2" d="M366.1,150.7c-0.6-1.2-1.9-4.7,0.6-4.3C369.5,146.8,366.5,149.3,366.1,150.7z"/>
					<path id="path4" class="st2" d="M364.1,159c-1.2-1.5,0.4-3.1,0.8-4.5c1.1,1.8,2.2,3.6,3.1,5.5
						C366.7,159.8,365.4,159.4,364.1,159L364.1,159z"/>
				</g>
				<path id="path46" class="st0" d="M362.9,144.4c2.4-2.4,6.3-1.7,8.2,0.9c1.4,3-1,5.7-3.1,7.5c1.2,2.4,2.8,5,5.4,1.9
					c1.7,1.8,1.4,3.6-0.3,5.2c0.8,1.2,1.5,2.5,2.2,3.7c-2-0.4-4-0.8-5.9-1.3c-3.7,1.9-8.4,0.7-9.8-3.5c-1.1-2.9,1.3-5,3-7
					C361.9,149.6,360,146.2,362.9,144.4 M366.1,150.7c0.4-1.4,3.4-3.9,0.6-4.3C364.2,146,365.5,149.5,366.1,150.7 M364.1,159
					c1.3,0.4,2.6,0.8,3.9,1c-0.9-1.9-1.9-3.8-3.1-5.5C364.5,155.9,363,157.5,364.1,159L364.1,159z"/>
			</g>
			<g id="g337">
				<path id="path28" class="st0" d="M500.2,142.7c3.3,0.1,6.6,0,9.9,0.1c-0.1,1.3-0.2,2.7-0.3,4c-1.3,0-3.9,0-5.2,0
					c0.1,1,0.2,3.1,0.3,4.1c1.2,0,3.6-0.1,4.9-0.1c-0.1,1-0.4,2.9-0.5,3.8c-1.5,0.1-3.1,0.2-4.6,0.3c0,1,0.1,2.9,0.1,3.9
					c1.8,0.2,3.6,0.4,5.4,0.6c-0.1,1.3-0.2,2.7-0.3,4.1c-3.2-0.1-6.4-0.1-9.6-0.1C500.1,156.4,500.1,149.6,500.2,142.7L500.2,142.7z
					"/>
				<path id="path48" class="st0" d="M402.7,144.4c3.4-2.3,9.9-3.3,9.9,2.5c-2.1-0.1-4.1-0.2-6.1-0.3c0.1,3.9,4,5.5,6,8.4
					c1.3,2.5-0.3,5-1.1,7.3c-2.8,1-5.7,1.3-8.7,1c0-1.3-0.1-4-0.2-5.4c0.8,0.5,2.4,1.4,3.3,1.9c1-0.8,3.1-1.3,2.3-3
					c-1.6-1.7-3.4-3.2-4.9-5C401.5,149.7,402.5,146.8,402.7,144.4L402.7,144.4z"/>
				<path id="path50" class="st0" d="M424.1,142.7c1.7,0,3.4,0,5.1,0c0.8,2.3,1.6,4.7,2.4,7c1.1-2.4,2.1-4.8,3.2-7.1
					c1.1,0,3.3,0.1,4.4,0.1c-1.6,3.8-3.9,7.3-5.2,11.2c-0.3,3.1-0.1,6.3-0.1,9.4c-1.2,0-3.5,0-4.7,0c0.1-3.3,0.5-6.6,0-9.8
					C427.9,149.8,425.9,146.3,424.1,142.7L424.1,142.7z"/>
				<path id="path52" class="st0" d="M452.3,144.3c2-2.3,5.2-1.5,7.8-1.6c0.1,1,0.3,3.1,0.4,4.1c-2-0.3-3.8-0.1-5.6,0.7
					c1.4,4.4,8,6.2,6.6,11.5c-1,5.9-11.8,6.7-11.1-0.3c2.5,0.7,5.1,1,7.2-0.7c-2.2-2.5-4.7-4.9-7-7.3
					C450.9,148.5,450.3,145.8,452.3,144.3L452.3,144.3z"/>
				<path id="path54" class="st0" d="M474.8,142.7c3.7,0.1,7.4,0.1,11.2,0c0.1,1.3,0.1,2.6,0.2,3.9c-0.8,0.1-2.5,0.2-3.3,0.2
					c-0.1,5.5,0,11.1-0.1,16.6c-1.2,0-3.6,0-4.8-0.1c0-5.4-0.1-10.8,0.1-16.2c-0.9-0.1-2.5-0.5-3.4-0.6
					C474.7,145.6,474.7,143.7,474.8,142.7L474.8,142.7z"/>
				<path id="path56" class="st0" d="M526,142.5c1.9,0.1,3.8,0.4,5.7,0.6c0.7,4,1.1,8.1,2.2,12c0.6-4.1,1-8.3,1.9-12.4
					c1.9,0,3.8,0,5.8,0c0.8,6.9,1.4,13.8,1.8,20.7c-1.1,0-3.3,0-4.4,0c-0.1-5.1-0.3-10.3-0.8-15.4c-1.4,5-1.5,10.3-3.1,15.2
					c-0.7,0-2.2,0-2.9,0c-1.1-4-1.4-8.2-1.9-12.3c0-0.6,0-1.7,0-2.3c-1.9,4.6-1.4,9.9-2,14.8c-1.1,0-3.3,0-4.4,0
					C524.3,156.4,525.3,149.5,526,142.5L526,142.5z"/>
				<path id="path58" class="st0" d="M558,144.2c3.2-2.2,9.6-2.9,9.2,2.6c-2-0.1-3.9-0.1-5.9,0.2c-0.4,4.3,5.4,5.4,6.1,9.4
					c0.9,2.9-1.5,5.2-3.3,7.3c-2.3,0-4.6-0.1-6.9-0.3c-0.1-1.1-0.2-3.4-0.2-4.6c2.1,0.3,4.2,0.5,6.3,0.6c-1.1-4.3-5.7-6.4-7-10.8
					C556.9,147.1,557.4,145.6,558,144.2z"/>
			</g>
		</g>
	</g>
</g>
</svg>
